<mxfile host="app.diagrams.net" agent="Mozilla/5.0 (Windows NT 10.0; Win64; x64; rv:130.0) Gecko/20100101 Firefox/130.0" version="24.7.14">
  <diagram name="Page-1" id="54gdvvRYuCjU3ssXZLBo">
    <mxGraphModel dx="954" dy="567" grid="1" gridSize="10" guides="1" tooltips="1" connect="1" arrows="1" fold="1" page="1" pageScale="1" pageWidth="850" pageHeight="1100" math="0" shadow="0">
      <root>
        <mxCell id="0" />
        <mxCell id="1" parent="0" />
        <mxCell id="fPmp9EwwyHRmbghLNMeb-3" style="edgeStyle=orthogonalEdgeStyle;rounded=0;orthogonalLoop=1;jettySize=auto;html=1;exitX=1;exitY=0.25;exitDx=0;exitDy=0;entryX=0;entryY=0.25;entryDx=0;entryDy=0;" edge="1" parent="1" source="fPmp9EwwyHRmbghLNMeb-1" target="fPmp9EwwyHRmbghLNMeb-2">
          <mxGeometry relative="1" as="geometry" />
        </mxCell>
        <mxCell id="fPmp9EwwyHRmbghLNMeb-4" style="edgeStyle=orthogonalEdgeStyle;rounded=0;orthogonalLoop=1;jettySize=auto;html=1;exitX=1;exitY=0.75;exitDx=0;exitDy=0;entryX=0;entryY=0.75;entryDx=0;entryDy=0;startArrow=classic;startFill=1;endArrow=none;endFill=0;" edge="1" parent="1" source="fPmp9EwwyHRmbghLNMeb-1" target="fPmp9EwwyHRmbghLNMeb-2">
          <mxGeometry relative="1" as="geometry" />
        </mxCell>
        <mxCell id="fPmp9EwwyHRmbghLNMeb-1" value="&lt;font style=&quot;font-size: 24px;&quot;&gt;Radar&lt;/font&gt;" style="rounded=1;whiteSpace=wrap;html=1;" vertex="1" parent="1">
          <mxGeometry x="120" y="280" width="120" height="60" as="geometry" />
        </mxCell>
        <mxCell id="fPmp9EwwyHRmbghLNMeb-2" value="&lt;font style=&quot;font-size: 24px;&quot;&gt;Drone&lt;/font&gt;" style="rounded=1;whiteSpace=wrap;html=1;" vertex="1" parent="1">
          <mxGeometry x="340" y="280" width="120" height="60" as="geometry" />
        </mxCell>
      </root>
    </mxGraphModel>
  </diagram>
</mxfile>
